<svg xmlns="http://www.w3.org/2000/svg" xmlns:xlink="http://www.w3.org/1999/xlink" width="100" zoomAndPan="magnify" viewBox="0 0 75.119995 83.04" height="100" preserveAspectRatio="xMidYMid meet" version="1.0"><defs><clipPath id="b41ccee63c"><path d="M 3.921875 3.714844 L 69.902344 3.714844 L 69.902344 70.429688 L 3.921875 70.429688 Z M 3.921875 3.714844 " clip-rule="nonzero"/></clipPath></defs><path fill="#ffdc70" d="M 14.492188 42.335938 L 19.761719 42.335938 C 20.492188 42.335938 21.085938 41.742188 21.085938 41.011719 L 21.085938 35.738281 C 21.085938 35.007812 20.492188 34.417969 19.761719 34.417969 L 14.492188 34.417969 C 13.761719 34.417969 13.167969 35.007812 13.167969 35.738281 L 13.167969 41.011719 C 13.167969 41.742188 13.757812 42.335938 14.492188 42.335938 Z M 14.492188 42.335938 " fill-opacity="1" fill-rule="nonzero"/><path fill="#ffdc70" d="M 14.492188 53.230469 L 19.761719 53.230469 C 20.492188 53.230469 21.085938 52.636719 21.085938 51.90625 L 21.085938 46.636719 C 21.085938 45.90625 20.492188 45.3125 19.761719 45.3125 L 14.492188 45.3125 C 13.761719 45.3125 13.167969 45.90625 13.167969 46.636719 L 13.167969 51.90625 C 13.167969 52.636719 13.757812 53.230469 14.492188 53.230469 Z M 14.492188 53.230469 " fill-opacity="1" fill-rule="nonzero"/><path fill="#ffdc70" d="M 14.492188 64.128906 L 19.761719 64.128906 C 20.492188 64.128906 21.085938 63.535156 21.085938 62.804688 L 21.085938 57.535156 C 21.085938 56.800781 20.492188 56.210938 19.761719 56.210938 L 14.492188 56.210938 C 13.761719 56.210938 13.167969 56.800781 13.167969 57.535156 L 13.167969 62.804688 C 13.167969 63.535156 13.757812 64.128906 14.492188 64.128906 Z M 14.492188 64.128906 " fill-opacity="1" fill-rule="nonzero"/><path fill="#ffdc70" d="M 27.78125 42.335938 L 33.050781 42.335938 C 33.78125 42.335938 34.375 41.742188 34.375 41.011719 L 34.375 35.738281 C 34.375 35.007812 33.785156 34.417969 33.050781 34.417969 L 27.78125 34.417969 C 27.050781 34.417969 26.457031 35.007812 26.457031 35.738281 L 26.457031 41.011719 C 26.457031 41.742188 27.050781 42.335938 27.78125 42.335938 Z M 27.78125 42.335938 " fill-opacity="1" fill-rule="nonzero"/><path fill="#ffdc70" d="M 27.78125 53.230469 L 33.050781 53.230469 C 33.78125 53.230469 34.375 52.636719 34.375 51.90625 L 34.375 46.636719 C 34.375 45.90625 33.785156 45.3125 33.050781 45.3125 L 27.78125 45.3125 C 27.050781 45.3125 26.457031 45.90625 26.457031 46.636719 L 26.457031 51.90625 C 26.457031 52.636719 27.050781 53.230469 27.78125 53.230469 Z M 27.78125 53.230469 " fill-opacity="1" fill-rule="nonzero"/><path fill="#ffdc70" d="M 27.78125 64.128906 L 33.050781 64.128906 C 33.78125 64.128906 34.375 63.535156 34.375 62.804688 L 34.375 57.535156 C 34.375 56.800781 33.785156 56.210938 33.050781 56.210938 L 27.78125 56.210938 C 27.050781 56.210938 26.457031 56.800781 26.457031 57.535156 L 26.457031 62.804688 C 26.457031 63.535156 27.050781 64.128906 27.78125 64.128906 Z M 27.78125 64.128906 " fill-opacity="1" fill-rule="nonzero"/><path fill="#ffdc70" d="M 41.074219 42.335938 L 46.34375 42.335938 C 47.074219 42.335938 47.667969 41.742188 47.667969 41.011719 L 47.667969 35.738281 C 47.667969 35.007812 47.074219 34.417969 46.34375 34.417969 L 41.074219 34.417969 C 40.34375 34.417969 39.75 35.007812 39.75 35.738281 L 39.75 41.011719 C 39.75 41.742188 40.34375 42.335938 41.074219 42.335938 Z M 41.074219 42.335938 " fill-opacity="1" fill-rule="nonzero"/><path fill="#ffdc70" d="M 46.34375 56.210938 L 41.074219 56.210938 C 40.34375 56.210938 39.75 56.800781 39.75 57.535156 L 39.75 62.804688 C 39.75 63.535156 40.34375 64.128906 41.074219 64.128906 L 46.34375 64.128906 C 47.074219 64.128906 47.667969 63.535156 47.667969 62.804688 L 47.667969 57.535156 C 47.667969 56.800781 47.074219 56.210938 46.34375 56.210938 Z M 46.34375 56.210938 " fill-opacity="1" fill-rule="nonzero"/><path fill="#ffdc70" d="M 54.363281 42.335938 L 59.636719 42.335938 C 60.367188 42.335938 60.957031 41.742188 60.957031 41.011719 L 60.957031 35.738281 C 60.957031 35.007812 60.367188 34.417969 59.636719 34.417969 L 54.363281 34.417969 C 53.632812 34.417969 53.039062 35.007812 53.039062 35.738281 L 53.039062 41.011719 C 53.039062 41.742188 53.632812 42.335938 54.363281 42.335938 Z M 54.363281 42.335938 " fill-opacity="1" fill-rule="nonzero"/><path fill="#ffdc70" d="M 54.363281 53.230469 L 59.636719 53.230469 C 60.367188 53.230469 60.957031 52.636719 60.957031 51.90625 L 60.957031 46.636719 C 60.957031 45.90625 60.367188 45.3125 59.636719 45.3125 L 54.363281 45.3125 C 53.632812 45.3125 53.039062 45.90625 53.039062 46.636719 L 53.039062 51.90625 C 53.039062 52.636719 53.632812 53.230469 54.363281 53.230469 Z M 54.363281 53.230469 " fill-opacity="1" fill-rule="nonzero"/><g clip-path="url(#b41ccee63c)"><path fill="#ffdc70" d="M 54.65625 3.71875 C 53.414062 3.71875 52.40625 4.726562 52.40625 5.96875 L 52.40625 10.484375 L 21.832031 10.484375 L 21.832031 5.96875 C 21.832031 4.726562 20.828125 3.71875 19.585938 3.71875 C 18.34375 3.71875 17.339844 4.726562 17.339844 5.96875 L 17.339844 10.484375 L 10.253906 10.484375 C 6.761719 10.484375 3.921875 13.324219 3.921875 16.8125 L 3.921875 64.09375 C 3.921875 67.585938 6.761719 70.425781 10.253906 70.425781 L 63.871094 70.425781 C 67.363281 70.425781 70.203125 67.585938 70.203125 64.09375 L 70.203125 16.8125 C 70.203125 13.324219 67.363281 10.484375 63.871094 10.484375 L 56.902344 10.484375 L 56.902344 5.96875 C 56.902344 4.726562 55.898438 3.71875 54.65625 3.71875 Z M 17.339844 13.707031 L 17.339844 16.5 C 17.339844 17.742188 18.34375 18.746094 19.585938 18.746094 C 20.828125 18.746094 21.832031 17.742188 21.832031 16.5 L 21.832031 13.707031 C 22.648438 14.367188 23.167969 15.371094 23.167969 16.5 C 23.167969 18.480469 21.566406 20.082031 19.585938 20.082031 C 17.605469 20.082031 16.003906 18.480469 16.003906 16.5 C 16.003906 15.371094 16.523438 14.367188 17.339844 13.707031 Z M 67.082031 64.09375 C 67.082031 65.867188 65.644531 67.304688 63.871094 67.304688 L 10.253906 67.304688 C 8.484375 67.304688 7.042969 65.867188 7.042969 64.09375 L 7.042969 31.238281 L 67.082031 31.238281 Z M 58.238281 16.5 C 58.238281 18.480469 56.632812 20.082031 54.65625 20.082031 C 52.675781 20.082031 51.070312 18.480469 51.070312 16.5 C 51.070312 15.371094 51.59375 14.367188 52.40625 13.707031 L 52.40625 16.5 C 52.40625 17.742188 53.414062 18.746094 54.65625 18.746094 C 55.898438 18.746094 56.902344 17.742188 56.902344 16.5 L 56.902344 13.707031 C 57.71875 14.367188 58.238281 15.371094 58.238281 16.5 Z M 58.238281 16.5 " fill-opacity="1" fill-rule="nonzero"/></g><path fill="#ffdc70" d="M 43.292969 53.929688 L 49.570312 47.648438 C 50.179688 47.039062 50.179688 46.050781 49.570312 45.445312 C 48.964844 44.835938 47.976562 44.835938 47.367188 45.445312 L 43.292969 49.519531 L 41.65625 47.882812 C 41.046875 47.273438 40.058594 47.273438 39.449219 47.882812 C 38.839844 48.492188 38.839844 49.476562 39.449219 50.085938 Z M 43.292969 53.929688 " fill-opacity="1" fill-rule="nonzero"/></svg>