<svg xmlns="http://www.w3.org/2000/svg" xmlns:xlink="http://www.w3.org/1999/xlink" width="100" zoomAndPan="magnify" viewBox="0 0 75.119995 83.04" height="100" preserveAspectRatio="xMidYMid meet" version="1.0"><defs><clipPath id="bde9d74643"><path d="M 1.929688 1.9375 L 72.355469 1.9375 L 72.355469 72.363281 L 1.929688 72.363281 Z M 1.929688 1.9375 " clip-rule="nonzero"/></clipPath></defs><g clip-path="url(#bde9d74643)"><path fill="#ffdc70" d="M 37.066406 72.207031 C 17.691406 72.207031 1.929688 56.449219 1.929688 37.074219 C 1.929688 17.699219 17.691406 1.9375 37.066406 1.9375 C 56.441406 1.9375 72.203125 17.699219 72.203125 37.074219 C 72.203125 56.449219 56.441406 72.207031 37.066406 72.207031 Z M 37.066406 4.761719 C 19.25 4.761719 4.753906 19.253906 4.753906 37.074219 C 4.753906 54.890625 19.25 69.386719 37.066406 69.386719 C 54.882812 69.386719 69.378906 54.890625 69.378906 37.074219 C 69.378906 19.253906 54.882812 4.761719 37.066406 4.761719 Z M 37.066406 4.761719 " fill-opacity="1" fill-rule="nonzero"/></g><path fill="#ffdc70" d="M 49.246094 57.832031 L 36.257812 43.824219 L 23.742188 56.390625 L 17.074219 49.75 L 29.851562 36.917969 L 17.417969 23.503906 L 24.316406 17.105469 L 36.5 30.242188 L 49.546875 17.148438 L 56.214844 23.785156 L 42.90625 37.152344 L 56.144531 51.4375 Z M 49.246094 57.832031 " fill-opacity="1" fill-rule="nonzero"/></svg>