<svg xmlns="http://www.w3.org/2000/svg" xmlns:xlink="http://www.w3.org/1999/xlink" width="100" zoomAndPan="magnify" viewBox="0 0 75.119995 83.04" height="100" preserveAspectRatio="xMidYMid meet" version="1.0"><defs><clipPath id="dbd8f6ad77"><path d="M 2.5625 2.367188 L 70.765625 2.367188 L 70.765625 72.050781 L 2.5625 72.050781 Z M 2.5625 2.367188 " clip-rule="nonzero"/></clipPath></defs><path fill="#ffdc70" d="M 62.824219 46.898438 C 62.824219 46.753906 62.769531 46.609375 62.664062 46.507812 L 28.535156 12.417969 C 28.320312 12.203125 27.96875 12.203125 27.75 12.417969 C 27.191406 12.980469 26.441406 13.289062 25.648438 13.289062 C 24.851562 13.289062 24.105469 12.980469 23.542969 12.417969 C 23.328125 12.203125 22.976562 12.203125 22.757812 12.417969 L 9.859375 25.304688 C 9.753906 25.40625 9.695312 25.550781 9.695312 25.695312 C 9.695312 25.84375 9.753906 25.984375 9.859375 26.089844 C 10.886719 27.121094 11.023438 28.726562 10.175781 29.910156 C 10.019531 30.132812 10.042969 30.433594 10.234375 30.628906 L 38.378906 58.746094 C 38.378906 58.746094 38.378906 58.746094 38.382812 58.746094 L 44.433594 64.789062 C 44.625 64.980469 44.929688 65.003906 45.148438 64.847656 C 46.339844 64.007812 47.949219 64.140625 48.976562 65.164062 C 49.085938 65.273438 49.226562 65.328125 49.367188 65.328125 C 49.511719 65.328125 49.652344 65.273438 49.761719 65.164062 L 62.664062 52.28125 C 62.765625 52.175781 62.824219 52.035156 62.824219 51.886719 C 62.824219 51.742188 62.765625 51.597656 62.664062 51.496094 C 61.503906 50.335938 61.503906 48.453125 62.664062 47.292969 C 62.769531 47.1875 62.824219 47.046875 62.824219 46.898438 Z M 45.9375 39.617188 C 45.9375 41.996094 45.011719 44.230469 43.328125 45.90625 C 41.652344 47.589844 39.417969 48.515625 37.039062 48.515625 C 34.664062 48.515625 32.429688 47.589844 30.746094 45.90625 C 27.28125 42.441406 27.28125 36.796875 30.746094 33.324219 C 32.484375 31.59375 34.761719 30.726562 37.039062 30.726562 C 39.316406 30.726562 41.597656 31.59375 43.328125 33.324219 C 45.011719 35.007812 45.9375 37.242188 45.9375 39.617188 Z M 45.9375 39.617188 " fill-opacity="1" fill-rule="nonzero"/><g clip-path="url(#dbd8f6ad77)"><path fill="#ffdc70" d="M 70.300781 12.503906 C 70.226562 12.375 70.105469 12.28125 69.964844 12.242188 L 44.933594 5.359375 L 44.1875 2.820312 C 44.101562 2.527344 43.792969 2.355469 43.5 2.445312 L 28.074219 6.964844 L 26.042969 4.933594 C 25.824219 4.714844 25.472656 4.714844 25.257812 4.933594 L 21.214844 8.972656 L 14.652344 10.894531 C 14.511719 10.9375 14.394531 11.03125 14.320312 11.164062 C 14.25 11.292969 14.234375 11.441406 14.277344 11.585938 L 15.253906 14.921875 L 2.78125 27.386719 C 2.675781 27.492188 2.621094 27.632812 2.621094 27.777344 C 2.621094 27.925781 2.675781 28.066406 2.78125 28.171875 L 25.9375 51.300781 L 28.726562 60.808594 L 30.886719 68.148438 C 30.960938 68.390625 31.179688 68.550781 31.421875 68.550781 C 31.472656 68.550781 31.523438 68.542969 31.578125 68.527344 L 40.546875 65.894531 L 46.894531 72.234375 C 47.003906 72.34375 47.144531 72.398438 47.285156 72.398438 C 47.429688 72.398438 47.570312 72.34375 47.679688 72.234375 L 70.15625 49.789062 C 70.261719 49.683594 70.320312 49.542969 70.320312 49.394531 C 70.320312 49.246094 70.261719 49.105469 70.15625 49 L 62.515625 41.367188 L 70.351562 12.925781 C 70.390625 12.785156 70.375 12.632812 70.300781 12.503906 Z M 43.277344 3.664062 L 50.957031 29.820312 L 47.675781 26.542969 L 42.859375 10.160156 C 42.773438 9.867188 42.46875 9.699219 42.171875 9.785156 C 41.457031 9.992188 40.707031 9.914062 40.054688 9.554688 C 39.398438 9.199219 38.925781 8.613281 38.71875 7.902344 C 38.675781 7.761719 38.582031 7.640625 38.453125 7.570312 C 38.324219 7.5 38.167969 7.484375 38.027344 7.523438 L 30.765625 9.65625 L 28.96875 7.859375 Z M 15.5 11.804688 L 19.570312 10.613281 L 16.152344 14.027344 Z M 31.796875 67.304688 L 29.792969 60.496094 L 27.574219 52.933594 L 39.648438 64.996094 Z M 47.285156 71.054688 L 3.960938 27.777344 L 21.882812 9.871094 C 21.886719 9.867188 21.894531 9.867188 21.898438 9.863281 L 25.648438 6.109375 L 30.210938 10.671875 C 30.214844 10.675781 30.222656 10.679688 30.230469 10.683594 L 68.976562 49.394531 Z M 61.722656 40.066406 L 61.613281 40.46875 L 59.894531 38.75 L 65.53125 18.285156 C 65.570312 18.144531 65.554688 17.992188 65.480469 17.863281 C 65.40625 17.734375 65.285156 17.640625 65.144531 17.601562 C 64.457031 17.414062 63.886719 16.96875 63.53125 16.347656 C 63.179688 15.726562 63.089844 15.011719 63.277344 14.324219 C 63.316406 14.183594 63.296875 14.03125 63.226562 13.902344 C 63.152344 13.773438 63.03125 13.679688 62.890625 13.640625 L 46.828125 9.222656 C 46.550781 9.144531 46.269531 9.300781 46.167969 9.5625 L 45.300781 6.613281 L 69.136719 13.167969 Z M 61.722656 40.066406 " fill-opacity="1" fill-rule="nonzero"/></g><path fill="#ffdc70" d="M 40.652344 35.21875 L 39.679688 36.214844 C 39.289062 35.972656 38.84375 35.835938 38.375 35.835938 C 37.730469 35.835938 37.101562 36.097656 36.648438 36.550781 C 36.191406 37.003906 35.929688 37.636719 35.929688 38.28125 C 35.929688 38.925781 36.191406 39.554688 36.648438 40.011719 C 36.898438 40.261719 37.042969 40.605469 37.042969 40.953125 C 37.042969 41.304688 36.902344 41.640625 36.644531 41.898438 C 36.148438 42.402344 35.253906 42.402344 34.757812 41.898438 C 34.507812 41.644531 34.371094 41.308594 34.371094 40.953125 C 34.371094 40.601562 34.511719 40.257812 34.757812 40.011719 C 34.972656 39.796875 34.972656 39.445312 34.757812 39.226562 C 34.539062 39.007812 34.1875 39.011719 33.972656 39.226562 C 33.519531 39.679688 33.257812 40.308594 33.257812 40.953125 C 33.257812 41.414062 33.390625 41.855469 33.628906 42.238281 L 32.636719 43.238281 C 32.421875 43.453125 32.421875 43.804688 32.640625 44.023438 C 32.746094 44.128906 32.890625 44.183594 33.03125 44.183594 C 33.175781 44.183594 33.316406 44.128906 33.425781 44.019531 L 34.414062 43.027344 C 34.796875 43.265625 35.238281 43.402344 35.703125 43.402344 C 36.363281 43.402344 36.980469 43.144531 37.4375 42.679688 C 37.898438 42.210938 38.152344 41.597656 38.152344 40.953125 C 38.152344 40.3125 37.890625 39.683594 37.433594 39.226562 C 37.183594 38.976562 37.042969 38.632812 37.042969 38.28125 C 37.042969 37.929688 37.183594 37.585938 37.433594 37.335938 C 37.929688 36.839844 38.808594 36.828125 39.332031 37.347656 C 39.839844 37.867188 39.835938 38.710938 39.320312 39.226562 C 39.101562 39.445312 39.101562 39.796875 39.320312 40.011719 C 39.539062 40.230469 39.886719 40.230469 40.105469 40.011719 C 40.910156 39.207031 41.03125 37.96875 40.453125 37.011719 L 41.449219 36 C 41.664062 35.777344 41.660156 35.425781 41.441406 35.210938 C 41.222656 35 40.871094 35 40.652344 35.21875 Z M 40.652344 35.21875 " fill-opacity="1" fill-rule="nonzero"/></svg>