<svg xmlns="http://www.w3.org/2000/svg" xmlns:xlink="http://www.w3.org/1999/xlink" width="100" zoomAndPan="magnify" viewBox="0 0 75.119995 83.04" height="100" preserveAspectRatio="xMidYMid meet" version="1.0"><defs><clipPath id="3215161906"><path d="M 3.707031 3.714844 L 70.425781 3.714844 L 70.425781 70.429688 L 3.707031 70.429688 Z M 3.707031 3.714844 " clip-rule="nonzero"/></clipPath></defs><g clip-path="url(#3215161906)"><path fill="#ffffff" d="M 70.425781 37.070312 C 70.425781 38.164062 70.371094 39.253906 70.265625 40.34375 C 70.160156 41.429688 70 42.507812 69.785156 43.582031 C 69.574219 44.652344 69.308594 45.710938 68.988281 46.753906 C 68.671875 47.800781 68.304688 48.828125 67.886719 49.839844 C 67.46875 50.847656 67.003906 51.832031 66.488281 52.796875 C 65.972656 53.761719 65.410156 54.695312 64.804688 55.605469 C 64.199219 56.515625 63.546875 57.390625 62.855469 58.234375 C 62.160156 59.078125 61.429688 59.886719 60.65625 60.660156 C 59.882812 61.433594 59.074219 62.164062 58.230469 62.859375 C 57.386719 63.550781 56.507812 64.203125 55.601562 64.808594 C 54.691406 65.417969 53.757812 65.976562 52.792969 66.492188 C 51.828125 67.007812 50.84375 67.472656 49.832031 67.890625 C 48.824219 68.308594 47.796875 68.675781 46.75 68.996094 C 45.707031 69.3125 44.648438 69.578125 43.574219 69.789062 C 42.503906 70.003906 41.425781 70.164062 40.335938 70.269531 C 39.25 70.378906 38.160156 70.429688 37.066406 70.429688 C 35.976562 70.429688 34.886719 70.378906 33.796875 70.269531 C 32.710938 70.164062 31.628906 70.003906 30.558594 69.789062 C 29.488281 69.578125 28.429688 69.3125 27.382812 68.996094 C 26.339844 68.675781 25.3125 68.308594 24.300781 67.890625 C 23.292969 67.472656 22.304688 67.007812 21.34375 66.492188 C 20.378906 65.976562 19.441406 65.417969 18.535156 64.808594 C 17.625 64.203125 16.75 63.550781 15.90625 62.859375 C 15.058594 62.164062 14.25 61.433594 13.480469 60.660156 C 12.707031 59.886719 11.972656 59.078125 11.28125 58.234375 C 10.585938 57.390625 9.9375 56.515625 9.332031 55.605469 C 8.722656 54.695312 8.164062 53.761719 7.648438 52.796875 C 7.132812 51.832031 6.664062 50.847656 6.246094 49.839844 C 5.828125 48.828125 5.460938 47.800781 5.144531 46.753906 C 4.828125 45.710938 4.5625 44.652344 4.347656 43.582031 C 4.136719 42.507812 3.976562 41.429688 3.867188 40.34375 C 3.761719 39.253906 3.707031 38.164062 3.707031 37.070312 C 3.707031 35.980469 3.761719 34.890625 3.867188 33.800781 C 3.976562 32.714844 4.136719 31.636719 4.347656 30.5625 C 4.5625 29.492188 4.828125 28.433594 5.144531 27.386719 C 5.460938 26.34375 5.828125 25.316406 6.246094 24.304688 C 6.664062 23.296875 7.132812 22.308594 7.648438 21.347656 C 8.164062 20.382812 8.722656 19.445312 9.332031 18.539062 C 9.9375 17.628906 10.585938 16.753906 11.28125 15.910156 C 11.972656 15.066406 12.707031 14.257812 13.480469 13.484375 C 14.25 12.710938 15.058594 11.976562 15.90625 11.285156 C 16.75 10.59375 17.625 9.941406 18.535156 9.335938 C 19.441406 8.726562 20.378906 8.167969 21.34375 7.652344 C 22.304688 7.136719 23.292969 6.671875 24.300781 6.253906 C 25.3125 5.835938 26.339844 5.464844 27.382812 5.148438 C 28.429688 4.832031 29.488281 4.566406 30.558594 4.355469 C 31.628906 4.140625 32.710938 3.980469 33.796875 3.875 C 34.886719 3.765625 35.976562 3.714844 37.066406 3.714844 C 38.160156 3.714844 39.25 3.765625 40.335938 3.875 C 41.425781 3.980469 42.503906 4.140625 43.574219 4.355469 C 44.648438 4.566406 45.707031 4.832031 46.75 5.148438 C 47.796875 5.464844 48.824219 5.835938 49.832031 6.253906 C 50.84375 6.671875 51.828125 7.136719 52.792969 7.652344 C 53.757812 8.167969 54.691406 8.726562 55.601562 9.335938 C 56.507812 9.941406 57.386719 10.59375 58.230469 11.285156 C 59.074219 11.976562 59.882812 12.710938 60.65625 13.484375 C 61.429688 14.257812 62.160156 15.066406 62.855469 15.910156 C 63.546875 16.753906 64.199219 17.628906 64.804688 18.539062 C 65.410156 19.445312 65.972656 20.382812 66.488281 21.347656 C 67.003906 22.308594 67.46875 23.296875 67.886719 24.304688 C 68.304688 25.316406 68.671875 26.34375 68.988281 27.386719 C 69.308594 28.433594 69.574219 29.492188 69.785156 30.5625 C 70 31.636719 70.160156 32.714844 70.265625 33.800781 C 70.371094 34.890625 70.425781 35.980469 70.425781 37.070312 Z M 70.425781 37.070312 " fill-opacity="1" fill-rule="nonzero"/></g><path fill="#000000" d="M 17.082031 24.914062 C 17.421875 24.6875 17.828125 24.558594 18.265625 24.558594 L 55.671875 24.558594 C 56.160156 24.558594 56.613281 24.722656 56.972656 25 L 36.980469 35.851562 Z M 57.5625 48.460938 C 57.726562 48.15625 57.816406 47.808594 57.816406 47.441406 L 57.816406 26.96875 L 45.484375 33.542969 Z M 16.117188 26.820312 L 16.117188 47.441406 C 16.117188 47.628906 16.144531 47.8125 16.191406 47.988281 L 28.476562 33.546875 Z M 43.558594 34.621094 L 37.503906 38.015625 C 37.34375 38.109375 37.160156 38.15625 36.980469 38.15625 C 36.800781 38.15625 36.617188 38.109375 36.457031 38.015625 L 30.402344 34.625 L 17.710938 49.515625 C 17.886719 49.5625 18.074219 49.585938 18.265625 49.585938 L 55.671875 49.585938 C 55.683594 49.585938 55.699219 49.585938 55.710938 49.585938 Z M 43.558594 34.621094 " fill-opacity="1" fill-rule="nonzero"/></svg>