<svg xmlns="http://www.w3.org/2000/svg" xmlns:xlink="http://www.w3.org/1999/xlink" width="100" zoomAndPan="magnify" viewBox="0 0 75 74.999997" height="100" preserveAspectRatio="xMidYMid meet" version="1.0"><defs><clipPath id="e3dde0f2bf"><path d="M 3.972656 5 L 71.472656 5 L 71.472656 72.464844 L 3.972656 72.464844 Z M 3.972656 5 " clip-rule="nonzero"/></clipPath></defs><g clip-path="url(#e3dde0f2bf)"><path fill="#ffffff" d="M 61.664062 14.195312 C 55.28125 8.269531 46.800781 5.007812 37.78125 5.007812 C 28.765625 5.007812 20.285156 8.269531 13.902344 14.195312 C 7.496094 20.140625 3.972656 28.050781 3.972656 36.46875 C 3.972656 45.722656 8.292969 54.417969 15.847656 60.414062 L 15.847656 71.394531 C 15.847656 71.746094 16.027344 72.074219 16.328125 72.261719 C 16.492188 72.363281 16.679688 72.417969 16.867188 72.417969 C 17.023438 72.417969 17.175781 72.382812 17.320312 72.3125 L 28.609375 66.761719 C 31.582031 67.539062 34.664062 67.933594 37.78125 67.933594 C 46.800781 67.933594 55.28125 64.667969 61.664062 58.742188 C 68.066406 52.796875 71.59375 44.886719 71.59375 36.46875 C 71.59375 28.050781 68.066406 20.140625 61.664062 14.195312 Z M 58.664062 28.476562 L 41.679688 47.140625 C 41.617188 47.210938 41.527344 47.25 41.4375 47.253906 C 41.433594 47.253906 41.429688 47.253906 41.429688 47.253906 C 41.335938 47.253906 41.25 47.214844 41.1875 47.152344 L 32.453125 38.421875 L 17.265625 46.6875 C 17.117188 46.769531 16.933594 46.726562 16.832031 46.589844 C 16.730469 46.457031 16.742188 46.265625 16.863281 46.148438 L 34.164062 28.847656 C 34.296875 28.714844 34.511719 28.714844 34.644531 28.847656 L 43.101562 37.304688 L 58.234375 27.957031 C 58.378906 27.871094 58.566406 27.898438 58.675781 28.03125 C 58.785156 28.160156 58.78125 28.351562 58.664062 28.476562 Z M 58.664062 28.476562 " fill-opacity="1" fill-rule="nonzero"/></g></svg>