<svg xmlns="http://www.w3.org/2000/svg" xmlns:xlink="http://www.w3.org/1999/xlink" width="100" zoomAndPan="magnify" viewBox="0 0 75.119995 83.04" height="100" preserveAspectRatio="xMidYMid meet" version="1.0"><defs><clipPath id="398087b2c6"><path d="M 2.816406 2.824219 L 71.019531 2.824219 L 71.019531 71.023438 L 2.816406 71.023438 Z M 2.816406 2.824219 " clip-rule="nonzero"/></clipPath></defs><g clip-path="url(#398087b2c6)"><path fill="#ffffff" d="M 61.152344 52.796875 C 61.152344 55.171875 59.21875 57.105469 56.84375 57.105469 L 17.28125 57.105469 C 14.90625 57.105469 12.972656 55.171875 12.972656 52.796875 L 12.972656 26.449219 C 12.972656 24.074219 14.90625 22.140625 17.28125 22.140625 L 23.339844 22.140625 L 26.417969 16.003906 L 47.707031 16.003906 L 50.785156 22.140625 L 56.84375 22.140625 C 59.21875 22.140625 61.152344 24.074219 61.152344 26.449219 Z M 37.0625 2.824219 C 18.148438 2.824219 2.816406 18.15625 2.816406 37.070312 C 2.816406 55.980469 18.148438 71.3125 37.0625 71.3125 C 55.976562 71.3125 71.308594 55.980469 71.308594 37.070312 C 71.308594 18.15625 55.976562 2.824219 37.0625 2.824219 " fill-opacity="1" fill-rule="nonzero"/></g><path fill="#ffffff" d="M 37.0625 49.613281 C 30.144531 49.613281 24.519531 43.984375 24.519531 37.070312 C 24.519531 30.152344 30.144531 24.523438 37.0625 24.523438 C 43.980469 24.523438 49.605469 30.152344 49.605469 37.070312 C 49.605469 43.984375 43.980469 49.613281 37.0625 49.613281 Z M 44.890625 20.570312 L 29.234375 20.570312 L 26.15625 26.707031 L 17.539062 26.707031 L 17.539062 52.542969 L 56.585938 52.542969 L 56.585938 26.707031 L 47.96875 26.707031 L 44.890625 20.570312 " fill-opacity="1" fill-rule="nonzero"/><path fill="#ffffff" d="M 37.0625 29.089844 C 32.664062 29.089844 29.082031 32.667969 29.082031 37.070312 C 29.082031 41.46875 32.664062 45.046875 37.0625 45.046875 C 41.460938 45.046875 45.039062 41.46875 45.039062 37.070312 C 45.039062 32.667969 41.460938 29.089844 37.0625 29.089844 " fill-opacity="1" fill-rule="nonzero"/></svg>