<svg xmlns="http://www.w3.org/2000/svg" xmlns:xlink="http://www.w3.org/1999/xlink" width="100" zoomAndPan="magnify" viewBox="0 0 75.119995 83.04" height="100" preserveAspectRatio="xMidYMid meet" version="1.0"><defs><clipPath id="fba5a0a354"><path d="M 12.777344 1.917969 L 61.707031 1.917969 L 61.707031 72.34375 L 12.777344 72.34375 Z M 12.777344 1.917969 " clip-rule="nonzero"/></clipPath></defs><path fill="#ffdc70" d="M 38.105469 40.953125 C 38.105469 41.09375 38.082031 41.226562 38.027344 41.355469 C 37.972656 41.484375 37.898438 41.597656 37.800781 41.695312 C 37.703125 41.792969 37.589844 41.867188 37.460938 41.921875 C 37.335938 41.972656 37.199219 42 37.0625 42 C 36.921875 42 36.789062 41.972656 36.664062 41.921875 C 36.535156 41.867188 36.421875 41.792969 36.324219 41.695312 C 36.226562 41.597656 36.148438 41.484375 36.097656 41.355469 C 36.042969 41.226562 36.015625 41.09375 36.015625 40.953125 C 36.015625 40.816406 36.042969 40.683594 36.097656 40.554688 C 36.148438 40.425781 36.226562 40.3125 36.324219 40.214844 C 36.421875 40.117188 36.535156 40.042969 36.664062 39.988281 C 36.789062 39.9375 36.921875 39.910156 37.0625 39.910156 C 37.199219 39.910156 37.335938 39.9375 37.460938 39.988281 C 37.589844 40.042969 37.703125 40.117188 37.800781 40.214844 C 37.898438 40.3125 37.972656 40.425781 38.027344 40.554688 C 38.082031 40.683594 38.105469 40.816406 38.105469 40.953125 Z M 38.105469 40.953125 " fill-opacity="1" fill-rule="nonzero"/><path fill="#ffdc70" d="M 38.105469 45.085938 C 38.105469 45.222656 38.082031 45.355469 38.027344 45.484375 C 37.972656 45.613281 37.898438 45.726562 37.800781 45.824219 C 37.703125 45.921875 37.589844 45.996094 37.460938 46.050781 C 37.335938 46.101562 37.199219 46.128906 37.0625 46.128906 C 36.921875 46.128906 36.789062 46.101562 36.664062 46.050781 C 36.535156 45.996094 36.421875 45.921875 36.324219 45.824219 C 36.226562 45.726562 36.148438 45.613281 36.097656 45.484375 C 36.042969 45.355469 36.015625 45.222656 36.015625 45.085938 C 36.015625 44.945312 36.042969 44.8125 36.097656 44.683594 C 36.148438 44.554688 36.226562 44.445312 36.324219 44.34375 C 36.421875 44.246094 36.535156 44.171875 36.664062 44.117188 C 36.789062 44.066406 36.921875 44.039062 37.0625 44.039062 C 37.199219 44.039062 37.335938 44.066406 37.460938 44.117188 C 37.589844 44.171875 37.703125 44.246094 37.800781 44.34375 C 37.898438 44.445312 37.972656 44.554688 38.027344 44.683594 C 38.082031 44.8125 38.105469 44.945312 38.105469 45.085938 Z M 38.105469 45.085938 " fill-opacity="1" fill-rule="nonzero"/><g clip-path="url(#fba5a0a354)"><path fill="#ffdc70" d="M 44.394531 34.609375 L 48.90625 30.488281 L 51.074219 28.523438 C 54.984375 24.996094 56.925781 20.214844 57 13.886719 L 57 8.570312 L 60.277344 8.570312 C 60.417969 8.574219 60.550781 8.550781 60.683594 8.5 C 60.816406 8.445312 60.929688 8.371094 61.03125 8.273438 C 61.132812 8.175781 61.210938 8.0625 61.265625 7.933594 C 61.320312 7.800781 61.347656 7.667969 61.347656 7.527344 L 61.347656 3.003906 C 61.347656 2.863281 61.320312 2.730469 61.265625 2.605469 C 61.214844 2.476562 61.136719 2.363281 61.039062 2.265625 C 60.941406 2.167969 60.828125 2.089844 60.699219 2.039062 C 60.574219 1.984375 60.441406 1.957031 60.300781 1.957031 L 13.839844 1.957031 C 13.703125 1.957031 13.566406 1.984375 13.441406 2.039062 C 13.3125 2.089844 13.199219 2.167969 13.101562 2.265625 C 13.003906 2.363281 12.925781 2.476562 12.875 2.605469 C 12.820312 2.730469 12.796875 2.863281 12.796875 3.003906 L 12.796875 7.527344 C 12.796875 7.664062 12.820312 7.796875 12.875 7.925781 C 12.925781 8.054688 13.003906 8.167969 13.101562 8.265625 C 13.199219 8.363281 13.3125 8.4375 13.441406 8.492188 C 13.566406 8.542969 13.703125 8.570312 13.839844 8.570312 L 17.117188 8.570312 L 17.117188 13.871094 C 17.191406 20.183594 19.140625 24.964844 23.050781 28.484375 L 25.558594 30.773438 L 29.738281 34.585938 C 30.179688 34.914062 30.53125 35.324219 30.792969 35.804688 C 31.058594 36.289062 31.210938 36.804688 31.253906 37.351562 C 31.199219 37.917969 31.03125 38.449219 30.75 38.941406 C 30.46875 39.4375 30.097656 39.851562 29.640625 40.1875 L 23.035156 46.222656 C 19.121094 49.742188 17.183594 54.523438 17.101562 60.851562 L 17.101562 65.464844 L 13.839844 65.464844 C 13.699219 65.464844 13.5625 65.492188 13.433594 65.546875 C 13.304688 65.601562 13.191406 65.679688 13.09375 65.78125 C 12.992188 65.878906 12.917969 65.996094 12.867188 66.128906 C 12.816406 66.257812 12.792969 66.394531 12.796875 66.535156 L 12.796875 71.058594 C 12.796875 71.195312 12.820312 71.328125 12.875 71.457031 C 12.925781 71.585938 13.003906 71.699219 13.101562 71.796875 C 13.199219 71.894531 13.3125 71.96875 13.441406 72.023438 C 13.566406 72.074219 13.703125 72.101562 13.839844 72.101562 L 60.277344 72.101562 C 60.417969 72.105469 60.558594 72.082031 60.691406 72.027344 C 60.824219 71.972656 60.9375 71.898438 61.039062 71.796875 C 61.140625 71.695312 61.21875 71.578125 61.273438 71.445312 C 61.324219 71.3125 61.347656 71.175781 61.347656 71.03125 L 61.347656 66.535156 C 61.347656 66.394531 61.320312 66.261719 61.265625 66.132812 C 61.214844 66.007812 61.136719 65.894531 61.039062 65.796875 C 60.941406 65.699219 60.828125 65.621094 60.699219 65.570312 C 60.574219 65.515625 60.441406 65.488281 60.300781 65.488281 L 57 65.488281 L 57 60.832031 C 56.925781 54.523438 54.984375 49.742188 51.074219 46.222656 L 44.460938 40.175781 C 44.003906 39.84375 43.640625 39.433594 43.359375 38.945312 C 43.082031 38.453125 42.917969 37.929688 42.863281 37.367188 C 42.910156 36.820312 43.066406 36.308594 43.332031 35.824219 C 43.601562 35.34375 43.953125 34.941406 44.394531 34.609375 Z M 40.773438 37.378906 C 40.820312 38.234375 41.042969 39.042969 41.441406 39.804688 C 41.839844 40.5625 42.378906 41.207031 43.054688 41.730469 L 49.644531 47.769531 C 53.152344 50.925781 54.816406 55.089844 54.882812 60.851562 L 54.882812 65.464844 L 19.207031 65.464844 L 19.207031 60.859375 C 19.28125 55.089844 20.945312 50.925781 24.457031 47.769531 L 31.058594 41.742188 C 31.742188 41.210938 32.285156 40.5625 32.6875 39.796875 C 33.089844 39.03125 33.3125 38.214844 33.359375 37.351562 C 33.316406 36.515625 33.101562 35.722656 32.710938 34.980469 C 32.324219 34.238281 31.796875 33.609375 31.136719 33.097656 L 26.957031 29.285156 L 24.449219 26.996094 C 20.945312 23.835938 19.28125 19.671875 19.207031 13.914062 L 19.207031 8.570312 L 54.910156 8.570312 L 54.910156 13.871094 C 54.84375 19.636719 53.179688 23.800781 49.667969 26.960938 C 48.941406 27.613281 48.222656 28.273438 47.496094 28.941406 L 42.957031 33.097656 C 42.300781 33.621094 41.785156 34.257812 41.40625 35.003906 C 41.023438 35.75 40.8125 36.539062 40.773438 37.378906 Z M 40.773438 37.378906 " fill-opacity="1" fill-rule="nonzero"/></g><path fill="#ffdc70" d="M 50.820312 22.230469 C 50.9375 22.03125 50.980469 21.816406 50.953125 21.585938 C 50.925781 21.355469 50.832031 21.160156 50.671875 20.992188 C 50.515625 20.824219 50.320312 20.71875 50.09375 20.679688 C 49.863281 20.640625 49.648438 20.675781 49.441406 20.785156 C 45.320312 22.882812 43.773438 23.667969 37.378906 21.621094 C 35.332031 20.953125 33.230469 20.691406 31.078125 20.835938 C 28.929688 20.980469 26.882812 21.519531 24.941406 22.457031 C 24.796875 22.523438 24.675781 22.621094 24.574219 22.742188 C 24.476562 22.867188 24.40625 23.003906 24.371094 23.160156 C 24.335938 23.3125 24.332031 23.46875 24.367188 23.625 C 24.402344 23.777344 24.46875 23.917969 24.566406 24.042969 C 24.964844 24.519531 34.0625 33.238281 34.144531 33.238281 C 34.835938 34.035156 35.226562 34.957031 35.316406 36.007812 C 35.34375 36.21875 35.40625 36.417969 35.511719 36.605469 C 35.617188 36.792969 35.753906 36.957031 35.917969 37.089844 C 36.085938 37.226562 36.269531 37.328125 36.476562 37.390625 C 36.679688 37.453125 36.890625 37.476562 37.105469 37.460938 C 37.308594 37.480469 37.507812 37.460938 37.699219 37.402344 C 37.894531 37.339844 38.070312 37.246094 38.230469 37.117188 C 38.386719 36.984375 38.511719 36.828125 38.605469 36.648438 C 38.703125 36.46875 38.757812 36.277344 38.777344 36.074219 C 38.941406 34.6875 39.554688 33.542969 40.613281 32.636719 C 40.757812 32.511719 41.34375 31.953125 42.136719 31.191406 C 44.09375 29.320312 47.351562 26.175781 48.246094 25.390625 C 49.277344 24.476562 50.132812 23.421875 50.820312 22.230469 Z M 50.820312 22.230469 " fill-opacity="1" fill-rule="nonzero"/><path fill="#ffdc70" d="M 22.667969 62.121094 C 22.664062 62.261719 22.6875 62.398438 22.742188 62.53125 C 22.792969 62.664062 22.871094 62.78125 22.96875 62.882812 C 23.070312 62.984375 23.1875 63.058594 23.316406 63.113281 C 23.449219 63.167969 23.585938 63.191406 23.730469 63.191406 L 50.402344 63.191406 C 50.542969 63.191406 50.675781 63.164062 50.804688 63.109375 C 50.929688 63.058594 51.042969 62.984375 51.140625 62.886719 C 51.242188 62.785156 51.316406 62.671875 51.367188 62.546875 C 51.421875 62.417969 51.449219 62.285156 51.449219 62.144531 C 51.425781 61.214844 51.316406 60.296875 51.113281 59.386719 C 50.914062 58.480469 50.625 57.597656 50.253906 56.746094 C 49.882812 55.890625 49.433594 55.082031 48.90625 54.316406 C 48.375 53.550781 47.777344 52.84375 47.113281 52.191406 C 46.449219 51.542969 45.726562 50.960938 44.945312 50.453125 C 44.167969 49.941406 43.347656 49.511719 42.488281 49.160156 C 41.625 48.808594 40.738281 48.546875 39.824219 48.367188 C 38.910156 48.1875 37.988281 48.097656 37.058594 48.097656 C 36.128906 48.097656 35.207031 48.1875 34.292969 48.367188 C 33.378906 48.546875 32.492188 48.808594 31.628906 49.160156 C 30.769531 49.511719 29.949219 49.941406 29.167969 50.453125 C 28.390625 50.960938 27.667969 51.542969 27.003906 52.191406 C 26.335938 52.84375 25.738281 53.550781 25.210938 54.316406 C 24.683594 55.082031 24.230469 55.890625 23.859375 56.746094 C 23.488281 57.597656 23.203125 58.480469 23.003906 59.386719 C 22.800781 60.296875 22.691406 61.214844 22.667969 62.144531 Z M 22.667969 62.121094 " fill-opacity="1" fill-rule="nonzero"/></svg>