<svg xmlns="http://www.w3.org/2000/svg" xmlns:xlink="http://www.w3.org/1999/xlink" width="100" zoomAndPan="magnify" viewBox="0 0 75 74.999997" height="100" preserveAspectRatio="xMidYMid meet" version="1.0"><defs><clipPath id="6fb440b875"><path d="M 3.75 3.75 L 71.25 3.75 L 71.25 71.25 L 3.75 71.25 Z M 3.75 3.75 " clip-rule="nonzero"/></clipPath></defs><g clip-path="url(#6fb440b875)"><path fill="#ffffff" d="M 71.25 37.5 C 71.25 38.605469 71.195312 39.707031 71.085938 40.808594 C 70.980469 41.90625 70.816406 43 70.601562 44.085938 C 70.386719 45.167969 70.117188 46.238281 69.796875 47.296875 C 69.476562 48.355469 69.105469 49.394531 68.679688 50.414062 C 68.257812 51.4375 67.785156 52.433594 67.265625 53.410156 C 66.742188 54.382812 66.175781 55.332031 65.5625 56.25 C 64.949219 57.167969 64.289062 58.054688 63.589844 58.910156 C 62.886719 59.765625 62.144531 60.582031 61.363281 61.363281 C 60.582031 62.144531 59.765625 62.886719 58.910156 63.589844 C 58.054688 64.289062 57.167969 64.949219 56.25 65.5625 C 55.332031 66.175781 54.382812 66.742188 53.410156 67.265625 C 52.433594 67.785156 51.4375 68.257812 50.414062 68.679688 C 49.394531 69.105469 48.355469 69.476562 47.296875 69.796875 C 46.238281 70.117188 45.167969 70.386719 44.085938 70.601562 C 43 70.816406 41.90625 70.980469 40.808594 71.085938 C 39.707031 71.195312 38.605469 71.25 37.5 71.25 C 36.394531 71.25 35.292969 71.195312 34.191406 71.085938 C 33.09375 70.980469 32 70.816406 30.914062 70.601562 C 29.832031 70.386719 28.761719 70.117188 27.703125 69.796875 C 26.644531 69.476562 25.605469 69.105469 24.585938 68.679688 C 23.5625 68.257812 22.566406 67.785156 21.589844 67.265625 C 20.617188 66.742188 19.667969 66.175781 18.75 65.5625 C 17.832031 64.949219 16.945312 64.289062 16.089844 63.589844 C 15.234375 62.886719 14.417969 62.144531 13.636719 61.363281 C 12.855469 60.582031 12.113281 59.765625 11.410156 58.910156 C 10.710938 58.054688 10.050781 57.167969 9.4375 56.25 C 8.824219 55.332031 8.257812 54.382812 7.734375 53.410156 C 7.214844 52.433594 6.742188 51.4375 6.320312 50.414062 C 5.894531 49.394531 5.523438 48.355469 5.203125 47.296875 C 4.882812 46.238281 4.613281 45.167969 4.398438 44.085938 C 4.183594 43 4.019531 41.90625 3.914062 40.808594 C 3.804688 39.707031 3.75 38.605469 3.75 37.5 C 3.75 36.394531 3.804688 35.292969 3.914062 34.191406 C 4.019531 33.09375 4.183594 32 4.398438 30.914062 C 4.613281 29.832031 4.882812 28.761719 5.203125 27.703125 C 5.523438 26.644531 5.894531 25.605469 6.320312 24.585938 C 6.742188 23.5625 7.214844 22.566406 7.734375 21.589844 C 8.257812 20.617188 8.824219 19.667969 9.4375 18.75 C 10.050781 17.832031 10.710938 16.945312 11.410156 16.089844 C 12.113281 15.234375 12.855469 14.417969 13.636719 13.636719 C 14.417969 12.855469 15.234375 12.113281 16.089844 11.410156 C 16.945312 10.710938 17.832031 10.050781 18.75 9.4375 C 19.667969 8.824219 20.617188 8.257812 21.589844 7.734375 C 22.566406 7.214844 23.5625 6.742188 24.585938 6.320312 C 25.605469 5.894531 26.644531 5.523438 27.703125 5.203125 C 28.761719 4.882812 29.832031 4.613281 30.914062 4.398438 C 32 4.183594 33.09375 4.019531 34.191406 3.914062 C 35.292969 3.804688 36.394531 3.75 37.5 3.75 C 38.605469 3.75 39.707031 3.804688 40.808594 3.914062 C 41.90625 4.019531 43 4.183594 44.085938 4.398438 C 45.167969 4.613281 46.238281 4.882812 47.296875 5.203125 C 48.355469 5.523438 49.394531 5.894531 50.414062 6.320312 C 51.4375 6.742188 52.433594 7.214844 53.410156 7.734375 C 54.382812 8.257812 55.332031 8.824219 56.25 9.4375 C 57.167969 10.050781 58.054688 10.710938 58.910156 11.410156 C 59.765625 12.113281 60.582031 12.855469 61.363281 13.636719 C 62.144531 14.417969 62.886719 15.234375 63.589844 16.089844 C 64.289062 16.945312 64.949219 17.832031 65.5625 18.75 C 66.175781 19.667969 66.742188 20.617188 67.265625 21.589844 C 67.785156 22.566406 68.257812 23.5625 68.679688 24.585938 C 69.105469 25.605469 69.476562 26.644531 69.796875 27.703125 C 70.117188 28.761719 70.386719 29.832031 70.601562 30.914062 C 70.816406 32 70.980469 33.09375 71.085938 34.191406 C 71.195312 35.292969 71.25 36.394531 71.25 37.5 Z M 71.25 37.5 " fill-opacity="1" fill-rule="nonzero"/></g><path fill="#000000" d="M 35.144531 39.621094 C 29.574219 34.28125 30.4375 31.769531 30.4375 31.769531 C 32.710938 29.574219 32.398438 26.667969 32.398438 26.667969 C 31.222656 25.097656 30.042969 23.527344 28.867188 21.960938 C 28.867188 21.960938 27.296875 19.371094 24.863281 20.78125 C 18.347656 24.628906 20.390625 31.222656 20.390625 31.222656 C 20.390625 31.300781 22.195312 36.871094 30.4375 44.5625 C 38.675781 52.335938 44.640625 54.375 44.640625 54.375 C 44.640625 54.375 51.390625 56.574219 54.609375 50.371094 C 55.789062 48.015625 53.121094 46.210938 53.121094 46.210938 C 51.472656 44.878906 49.824219 43.621094 48.175781 42.367188 C 48.175781 42.367188 45.191406 41.894531 43.152344 44.171875 C 43.152344 44.25 40.640625 44.957031 35.144531 39.621094 Z M 35.144531 39.621094 " fill-opacity="1" fill-rule="nonzero"/></svg>